<?xml version="1.0" encoding="UTF-8" standalone="no"?>
<!-- Created with Inkscape (http://www.inkscape.org/) -->
<svg id="svg2" xmlns:rdf="http://www.w3.org/1999/02/22-rdf-syntax-ns#" xmlns="http://www.w3.org/2000/svg" height="256" width="256" version="1.1" xmlns:cc="http://creativecommons.org/ns#" xmlns:xlink="http://www.w3.org/1999/xlink" xmlns:dc="http://purl.org/dc/elements/1.1/">
<defs id="defs4">
<linearGradient id="linearGradient4328" y2="1015.7" gradientUnits="userSpaceOnUse" x2="29.595" gradientTransform="matrix(3.9102339,0,0,3.9102339,5.7687709,-3060.9985)" y1="1030.3" x1="29.595">
<stop id="stop4324" stop-color="#384246" offset="0"/>
<stop id="stop4330" stop-color="#434f54" offset="0.5"/>
<stop id="stop4332" stop-color="#49565b" offset="0.5"/>
<stop id="stop4326" stop-color="#5b6b72" offset="1"/>
</linearGradient>
</defs>
<metadata id="metadata7">
<rdf:RDF>
<cc:Work rdf:about="">
<dc:format>image/svg+xml</dc:format>
<dc:type rdf:resource="http://purl.org/dc/dcmitype/StillImage"/>
<dc:title/>
</cc:Work>
</rdf:RDF>
</metadata>
<g id="layer1" transform="translate(0,-796.36218)">
<path id="path3778-4-8" stroke-linejoin="round" d="M212.29,882.11,92.397,983.07,134.6,891.27z" stroke="#fa5b06" stroke-miterlimit="4" stroke-dasharray="none" stroke-width="0.1955117" fill="#fa5b06"/>
<path id="path3778-4-8-7" stroke-linejoin="round" d="m180.74,983.07-88.341,0,119.89-100.96z" stroke="#fa4005" stroke-miterlimit="4" stroke-dasharray="none" stroke-width="0.1955117" fill="#fa4005"/>
<path id="path3778-4" stroke-linejoin="round" d="M134.6,891.27,92.397,983.07,73.467,926.28z" stroke="#fa7406" stroke-miterlimit="4" stroke-dasharray="none" stroke-width="0.1955117" fill="#fa7406"/>
<path id="path3778-4-5" fill="#fa0573" d="m136.57,1033.6-44.171-50.481,88.341,0z"/>
<path id="rect2987" fill="#facd3c" d="M29.296,970.45,73.467,926.28,92.397,983.07z"/>
<path id="path3778" fill="#fa0573" d="m73.467,926.28,25.24-75.72,20.47,52.339z"/>
<path id="rect4224-1" opacity="0.1" fill="#292929" d="m78.113,912.11,32.661,0,0,3.2834-33.745,0z"/>
<path id="path3778-5" stroke-linejoin="round" d="m99.264,912.86,37.304-87.546,25.24,63.101c-20.28,6.7518-41.982,12.315-62.544,24.445z" stroke="#fa0573" stroke-miterlimit="4" stroke-dasharray="none" stroke-width="0.1955117" fill="#fa0573"/>
<path id="rect4224-3-3" opacity="0.1" d="m76.098,918.2c11.072,0.2307,23.475,1.6951,32.477,6.76v3.2834c-8.8754-3.3878-21.279-6.5496-33.561-6.76z" fill="#292929"/>
<path id="path3778-0" stroke-linejoin="round" d="m149.47,890.35,31.27-77.648,31.55,69.411z" stroke="#fa0573" stroke-miterlimit="4" stroke-dasharray="none" stroke-width="0.1955117" fill="#fa0573"/>
<path id="rect4224" fill="#d8d8d8" d="m78.733,910.4,32.661,0,0,3.2834-33.745,0z"/>
<path id="rect4224-3" d="m76.719,916.49c11.072,0.23071,23.475,1.6951,32.477,6.76v3.2834c-8.8754-3.3878-21.279-6.5496-33.561-6.76z" fill="#d8d8d8"/>
<path id="path3778-4-8-7-5" opacity="0.15" d="m143.91,918.02-42.585,42.218,53.017,52.987,26.868-29.632,6.7207-21.506z" fill="#000"/>
<path id="path3771" opacity="0.98999999" fill="url(#linearGradient4328)" d="m123.75,908.98c-6.0468-0.28154-12.189-0.42309-18.534-0.25808-14.529-0.0391-22.302,13.182-18.49,27.202,4.1174,11.599,5.4286,14.796,14.629,24.336,4.8119,4.0056,10.907,6.5528,17.635,6.9282,16.655,0.9189,30.908-11.837,31.829-28.489,0.92237-16.655-10.415-28.789-27.069-29.712z"/>
</g>
</svg>
